<svg width="512" height="512" viewBox="0 0 512 512" fill="none" xmlns="http://www.w3.org/2000/svg">
    <g clip-path="url(#clip0_1_2)">
        <path
            d="M370.576 189.649C362.172 189.649 351.667 191.751 341.161 193.852C315.948 132.92 257.118 93 189.884 93C99.5376 93 26 168.639 26 258.985C26 313.613 49.1118 361.938 91.1333 393.454C99.5376 399.757 114.245 397.656 120.548 389.252C126.852 380.847 124.751 366.14 116.346 359.837C86.9312 334.624 68.0215 298.905 68.0215 258.985C68.0215 191.751 122.649 135.022 189.884 135.022C244.512 135.022 292.837 172.841 307.544 227.469C309.645 233.772 313.847 240.075 320.151 242.176C326.454 244.277 332.757 244.277 339.06 242.176C349.566 235.873 360.071 233.772 372.677 233.772C412.598 233.772 446.215 267.389 446.215 309.411C446.215 338.826 429.406 366.14 402.092 378.746C391.587 382.948 387.385 395.555 391.587 406.06C395.789 414.465 402.092 418.667 410.497 418.667C412.598 418.667 414.699 418.667 416.8 416.566C458.822 397.656 486.135 353.533 486.135 307.31C486.135 242.176 435.71 189.649 370.576 189.649Z"
            fill="url(#paint0_linear_1_2)" />
    </g>
    <defs>
        <linearGradient id="paint0_linear_1_2" x1="26" y1="310.822" x2="486.135" y2="310.822"
            gradientUnits="userSpaceOnUse">
            <stop stop-color="#09A4EE" />
            <stop offset="1" stop-color="#007EFF" />
        </linearGradient>
        <clipPath id="clip0_1_2">
            <rect width="512" height="512" fill="white" />
        </clipPath>
    </defs>
</svg>